<mxfile host="app.diagrams.net" agent="Mozilla/5.0 (Windows NT 10.0; Win64; x64) AppleWebKit/537.36 (KHTML, like Gecko) Chrome/128.0.0.0 Safari/537.36" version="24.7.12">
  <diagram id="C5RBs43oDa-KdzZeNtuy" name="Page-1">
    <mxGraphModel dx="1434" dy="772" grid="1" gridSize="10" guides="1" tooltips="1" connect="1" arrows="1" fold="1" page="1" pageScale="1" pageWidth="827" pageHeight="1169" math="0" shadow="0">
      <root>
        <mxCell id="WIyWlLk6GJQsqaUBKTNV-0" />
        <mxCell id="WIyWlLk6GJQsqaUBKTNV-1" parent="WIyWlLk6GJQsqaUBKTNV-0" />
        <mxCell id="oKwuF4_4sGeXrzRO-QN0-12" style="edgeStyle=orthogonalEdgeStyle;rounded=0;orthogonalLoop=1;jettySize=auto;html=1;exitX=0.5;exitY=1;exitDx=0;exitDy=0;entryX=0.5;entryY=0;entryDx=0;entryDy=0;" edge="1" parent="WIyWlLk6GJQsqaUBKTNV-1" source="oKwuF4_4sGeXrzRO-QN0-0" target="oKwuF4_4sGeXrzRO-QN0-2">
          <mxGeometry relative="1" as="geometry" />
        </mxCell>
        <mxCell id="oKwuF4_4sGeXrzRO-QN0-0" value="Mulai" style="ellipse;whiteSpace=wrap;html=1;" vertex="1" parent="WIyWlLk6GJQsqaUBKTNV-1">
          <mxGeometry x="385" y="60" width="120" height="80" as="geometry" />
        </mxCell>
        <mxCell id="oKwuF4_4sGeXrzRO-QN0-1" value="Ya" style="rounded=0;whiteSpace=wrap;html=1;" vertex="1" parent="WIyWlLk6GJQsqaUBKTNV-1">
          <mxGeometry x="210" y="290" width="120" height="60" as="geometry" />
        </mxCell>
        <mxCell id="oKwuF4_4sGeXrzRO-QN0-13" style="edgeStyle=orthogonalEdgeStyle;rounded=0;orthogonalLoop=1;jettySize=auto;html=1;exitX=0.5;exitY=1;exitDx=0;exitDy=0;entryX=0.5;entryY=0;entryDx=0;entryDy=0;" edge="1" parent="WIyWlLk6GJQsqaUBKTNV-1" source="oKwuF4_4sGeXrzRO-QN0-2" target="oKwuF4_4sGeXrzRO-QN0-3">
          <mxGeometry relative="1" as="geometry" />
        </mxCell>
        <mxCell id="oKwuF4_4sGeXrzRO-QN0-2" value="Login" style="rounded=0;whiteSpace=wrap;html=1;" vertex="1" parent="WIyWlLk6GJQsqaUBKTNV-1">
          <mxGeometry x="385" y="170" width="120" height="60" as="geometry" />
        </mxCell>
        <mxCell id="oKwuF4_4sGeXrzRO-QN0-14" style="edgeStyle=orthogonalEdgeStyle;rounded=0;orthogonalLoop=1;jettySize=auto;html=1;exitX=1;exitY=0.5;exitDx=0;exitDy=0;entryX=0;entryY=0.5;entryDx=0;entryDy=0;" edge="1" parent="WIyWlLk6GJQsqaUBKTNV-1" source="oKwuF4_4sGeXrzRO-QN0-3" target="oKwuF4_4sGeXrzRO-QN0-4">
          <mxGeometry relative="1" as="geometry" />
        </mxCell>
        <mxCell id="oKwuF4_4sGeXrzRO-QN0-15" style="edgeStyle=orthogonalEdgeStyle;rounded=0;orthogonalLoop=1;jettySize=auto;html=1;exitX=0;exitY=0.5;exitDx=0;exitDy=0;entryX=1;entryY=0.5;entryDx=0;entryDy=0;" edge="1" parent="WIyWlLk6GJQsqaUBKTNV-1" source="oKwuF4_4sGeXrzRO-QN0-3" target="oKwuF4_4sGeXrzRO-QN0-1">
          <mxGeometry relative="1" as="geometry" />
        </mxCell>
        <mxCell id="oKwuF4_4sGeXrzRO-QN0-38" style="edgeStyle=orthogonalEdgeStyle;rounded=0;orthogonalLoop=1;jettySize=auto;html=1;exitX=1;exitY=0;exitDx=0;exitDy=0;entryX=0.5;entryY=0;entryDx=0;entryDy=0;" edge="1" parent="WIyWlLk6GJQsqaUBKTNV-1" source="oKwuF4_4sGeXrzRO-QN0-3" target="oKwuF4_4sGeXrzRO-QN0-6">
          <mxGeometry relative="1" as="geometry" />
        </mxCell>
        <mxCell id="oKwuF4_4sGeXrzRO-QN0-3" value="Terdaptar/Tidak" style="rhombus;whiteSpace=wrap;html=1;" vertex="1" parent="WIyWlLk6GJQsqaUBKTNV-1">
          <mxGeometry x="395" y="270" width="100" height="100" as="geometry" />
        </mxCell>
        <mxCell id="oKwuF4_4sGeXrzRO-QN0-39" style="edgeStyle=orthogonalEdgeStyle;rounded=0;orthogonalLoop=1;jettySize=auto;html=1;exitX=0.5;exitY=1;exitDx=0;exitDy=0;entryX=1;entryY=0.5;entryDx=0;entryDy=0;" edge="1" parent="WIyWlLk6GJQsqaUBKTNV-1" source="oKwuF4_4sGeXrzRO-QN0-4" target="oKwuF4_4sGeXrzRO-QN0-5">
          <mxGeometry relative="1" as="geometry" />
        </mxCell>
        <mxCell id="oKwuF4_4sGeXrzRO-QN0-4" value="Tidak" style="rounded=0;whiteSpace=wrap;html=1;" vertex="1" parent="WIyWlLk6GJQsqaUBKTNV-1">
          <mxGeometry x="520" y="290" width="120" height="60" as="geometry" />
        </mxCell>
        <mxCell id="oKwuF4_4sGeXrzRO-QN0-18" style="edgeStyle=orthogonalEdgeStyle;rounded=0;orthogonalLoop=1;jettySize=auto;html=1;exitX=0.5;exitY=1;exitDx=0;exitDy=0;entryX=0.5;entryY=0;entryDx=0;entryDy=0;" edge="1" parent="WIyWlLk6GJQsqaUBKTNV-1" source="oKwuF4_4sGeXrzRO-QN0-5" target="oKwuF4_4sGeXrzRO-QN0-8">
          <mxGeometry relative="1" as="geometry" />
        </mxCell>
        <mxCell id="oKwuF4_4sGeXrzRO-QN0-5" value="proses login" style="rounded=0;whiteSpace=wrap;html=1;" vertex="1" parent="WIyWlLk6GJQsqaUBKTNV-1">
          <mxGeometry x="375" y="420" width="120" height="60" as="geometry" />
        </mxCell>
        <mxCell id="oKwuF4_4sGeXrzRO-QN0-40" style="edgeStyle=orthogonalEdgeStyle;rounded=0;orthogonalLoop=1;jettySize=auto;html=1;exitX=0.5;exitY=1;exitDx=0;exitDy=0;entryX=1;entryY=0.5;entryDx=0;entryDy=0;" edge="1" parent="WIyWlLk6GJQsqaUBKTNV-1" source="oKwuF4_4sGeXrzRO-QN0-6" target="oKwuF4_4sGeXrzRO-QN0-5">
          <mxGeometry relative="1" as="geometry" />
        </mxCell>
        <mxCell id="oKwuF4_4sGeXrzRO-QN0-6" value="Lupa kata sandi" style="rounded=0;whiteSpace=wrap;html=1;" vertex="1" parent="WIyWlLk6GJQsqaUBKTNV-1">
          <mxGeometry x="660" y="290" width="120" height="60" as="geometry" />
        </mxCell>
        <mxCell id="oKwuF4_4sGeXrzRO-QN0-7" value="riwayat" style="rounded=0;whiteSpace=wrap;html=1;" vertex="1" parent="WIyWlLk6GJQsqaUBKTNV-1">
          <mxGeometry x="80" y="520" width="120" height="60" as="geometry" />
        </mxCell>
        <mxCell id="oKwuF4_4sGeXrzRO-QN0-19" style="edgeStyle=orthogonalEdgeStyle;rounded=0;orthogonalLoop=1;jettySize=auto;html=1;exitX=1;exitY=0.5;exitDx=0;exitDy=0;" edge="1" parent="WIyWlLk6GJQsqaUBKTNV-1" source="oKwuF4_4sGeXrzRO-QN0-8" target="oKwuF4_4sGeXrzRO-QN0-9">
          <mxGeometry relative="1" as="geometry" />
        </mxCell>
        <mxCell id="oKwuF4_4sGeXrzRO-QN0-20" style="edgeStyle=orthogonalEdgeStyle;rounded=0;orthogonalLoop=1;jettySize=auto;html=1;exitX=0;exitY=0.5;exitDx=0;exitDy=0;" edge="1" parent="WIyWlLk6GJQsqaUBKTNV-1" source="oKwuF4_4sGeXrzRO-QN0-8" target="oKwuF4_4sGeXrzRO-QN0-10">
          <mxGeometry relative="1" as="geometry" />
        </mxCell>
        <mxCell id="oKwuF4_4sGeXrzRO-QN0-21" style="edgeStyle=orthogonalEdgeStyle;rounded=0;orthogonalLoop=1;jettySize=auto;html=1;exitX=0.5;exitY=1;exitDx=0;exitDy=0;entryX=0.5;entryY=0;entryDx=0;entryDy=0;" edge="1" parent="WIyWlLk6GJQsqaUBKTNV-1" source="oKwuF4_4sGeXrzRO-QN0-8" target="oKwuF4_4sGeXrzRO-QN0-11">
          <mxGeometry relative="1" as="geometry" />
        </mxCell>
        <mxCell id="oKwuF4_4sGeXrzRO-QN0-22" style="edgeStyle=orthogonalEdgeStyle;rounded=0;orthogonalLoop=1;jettySize=auto;html=1;exitX=0;exitY=0;exitDx=0;exitDy=0;entryX=0.5;entryY=0;entryDx=0;entryDy=0;" edge="1" parent="WIyWlLk6GJQsqaUBKTNV-1" source="oKwuF4_4sGeXrzRO-QN0-8" target="oKwuF4_4sGeXrzRO-QN0-7">
          <mxGeometry relative="1" as="geometry" />
        </mxCell>
        <mxCell id="oKwuF4_4sGeXrzRO-QN0-8" value="menu utama" style="rhombus;whiteSpace=wrap;html=1;" vertex="1" parent="WIyWlLk6GJQsqaUBKTNV-1">
          <mxGeometry x="380" y="500" width="100" height="100" as="geometry" />
        </mxCell>
        <mxCell id="oKwuF4_4sGeXrzRO-QN0-9" value="pengunjung" style="rounded=0;whiteSpace=wrap;html=1;" vertex="1" parent="WIyWlLk6GJQsqaUBKTNV-1">
          <mxGeometry x="520" y="520" width="120" height="60" as="geometry" />
        </mxCell>
        <mxCell id="oKwuF4_4sGeXrzRO-QN0-10" value="rak" style="rounded=0;whiteSpace=wrap;html=1;" vertex="1" parent="WIyWlLk6GJQsqaUBKTNV-1">
          <mxGeometry x="230" y="520" width="120" height="60" as="geometry" />
        </mxCell>
        <mxCell id="oKwuF4_4sGeXrzRO-QN0-11" value="selesai" style="ellipse;whiteSpace=wrap;html=1;" vertex="1" parent="WIyWlLk6GJQsqaUBKTNV-1">
          <mxGeometry x="370" y="630" width="120" height="80" as="geometry" />
        </mxCell>
        <mxCell id="oKwuF4_4sGeXrzRO-QN0-16" style="edgeStyle=orthogonalEdgeStyle;rounded=0;orthogonalLoop=1;jettySize=auto;html=1;exitX=0.5;exitY=1;exitDx=0;exitDy=0;entryX=0.583;entryY=0.067;entryDx=0;entryDy=0;entryPerimeter=0;" edge="1" parent="WIyWlLk6GJQsqaUBKTNV-1" source="oKwuF4_4sGeXrzRO-QN0-3" target="oKwuF4_4sGeXrzRO-QN0-5">
          <mxGeometry relative="1" as="geometry" />
        </mxCell>
        <mxCell id="oKwuF4_4sGeXrzRO-QN0-43" style="edgeStyle=orthogonalEdgeStyle;rounded=0;orthogonalLoop=1;jettySize=auto;html=1;exitX=0.5;exitY=1;exitDx=0;exitDy=0;entryX=0.5;entryY=0;entryDx=0;entryDy=0;" edge="1" parent="WIyWlLk6GJQsqaUBKTNV-1" source="oKwuF4_4sGeXrzRO-QN0-23" target="oKwuF4_4sGeXrzRO-QN0-25">
          <mxGeometry relative="1" as="geometry" />
        </mxCell>
        <mxCell id="oKwuF4_4sGeXrzRO-QN0-23" value="mulai" style="ellipse;whiteSpace=wrap;html=1;" vertex="1" parent="WIyWlLk6GJQsqaUBKTNV-1">
          <mxGeometry x="370" y="780" width="120" height="80" as="geometry" />
        </mxCell>
        <mxCell id="oKwuF4_4sGeXrzRO-QN0-41" style="edgeStyle=orthogonalEdgeStyle;rounded=0;orthogonalLoop=1;jettySize=auto;html=1;exitX=0.5;exitY=1;exitDx=0;exitDy=0;entryX=1;entryY=0.5;entryDx=0;entryDy=0;" edge="1" parent="WIyWlLk6GJQsqaUBKTNV-1" source="oKwuF4_4sGeXrzRO-QN0-24" target="oKwuF4_4sGeXrzRO-QN0-31">
          <mxGeometry relative="1" as="geometry" />
        </mxCell>
        <mxCell id="oKwuF4_4sGeXrzRO-QN0-24" value="tidak" style="rounded=0;whiteSpace=wrap;html=1;" vertex="1" parent="WIyWlLk6GJQsqaUBKTNV-1">
          <mxGeometry x="520" y="985" width="120" height="60" as="geometry" />
        </mxCell>
        <mxCell id="oKwuF4_4sGeXrzRO-QN0-44" style="edgeStyle=orthogonalEdgeStyle;rounded=0;orthogonalLoop=1;jettySize=auto;html=1;exitX=0.5;exitY=1;exitDx=0;exitDy=0;entryX=0.5;entryY=0;entryDx=0;entryDy=0;" edge="1" parent="WIyWlLk6GJQsqaUBKTNV-1" source="oKwuF4_4sGeXrzRO-QN0-25" target="oKwuF4_4sGeXrzRO-QN0-28">
          <mxGeometry relative="1" as="geometry" />
        </mxCell>
        <mxCell id="oKwuF4_4sGeXrzRO-QN0-25" value="logi" style="rounded=0;whiteSpace=wrap;html=1;" vertex="1" parent="WIyWlLk6GJQsqaUBKTNV-1">
          <mxGeometry x="370" y="880" width="120" height="60" as="geometry" />
        </mxCell>
        <mxCell id="oKwuF4_4sGeXrzRO-QN0-42" style="edgeStyle=orthogonalEdgeStyle;rounded=0;orthogonalLoop=1;jettySize=auto;html=1;exitX=0.5;exitY=1;exitDx=0;exitDy=0;entryX=1;entryY=0.5;entryDx=0;entryDy=0;" edge="1" parent="WIyWlLk6GJQsqaUBKTNV-1" source="oKwuF4_4sGeXrzRO-QN0-26" target="oKwuF4_4sGeXrzRO-QN0-31">
          <mxGeometry relative="1" as="geometry" />
        </mxCell>
        <mxCell id="oKwuF4_4sGeXrzRO-QN0-26" value="lupa kata sandi" style="rounded=0;whiteSpace=wrap;html=1;" vertex="1" parent="WIyWlLk6GJQsqaUBKTNV-1">
          <mxGeometry x="660" y="990" width="120" height="60" as="geometry" />
        </mxCell>
        <mxCell id="oKwuF4_4sGeXrzRO-QN0-45" style="edgeStyle=orthogonalEdgeStyle;rounded=0;orthogonalLoop=1;jettySize=auto;html=1;exitX=0.5;exitY=1;exitDx=0;exitDy=0;entryX=0;entryY=0.5;entryDx=0;entryDy=0;" edge="1" parent="WIyWlLk6GJQsqaUBKTNV-1" source="oKwuF4_4sGeXrzRO-QN0-27" target="oKwuF4_4sGeXrzRO-QN0-31">
          <mxGeometry relative="1" as="geometry" />
        </mxCell>
        <mxCell id="oKwuF4_4sGeXrzRO-QN0-27" value="ya" style="rounded=0;whiteSpace=wrap;html=1;" vertex="1" parent="WIyWlLk6GJQsqaUBKTNV-1">
          <mxGeometry x="230" y="985" width="120" height="60" as="geometry" />
        </mxCell>
        <mxCell id="oKwuF4_4sGeXrzRO-QN0-35" style="edgeStyle=orthogonalEdgeStyle;rounded=0;orthogonalLoop=1;jettySize=auto;html=1;exitX=1;exitY=0.5;exitDx=0;exitDy=0;" edge="1" parent="WIyWlLk6GJQsqaUBKTNV-1" source="oKwuF4_4sGeXrzRO-QN0-28" target="oKwuF4_4sGeXrzRO-QN0-24">
          <mxGeometry relative="1" as="geometry" />
        </mxCell>
        <mxCell id="oKwuF4_4sGeXrzRO-QN0-37" style="edgeStyle=orthogonalEdgeStyle;rounded=0;orthogonalLoop=1;jettySize=auto;html=1;exitX=1;exitY=0;exitDx=0;exitDy=0;entryX=0.5;entryY=0;entryDx=0;entryDy=0;" edge="1" parent="WIyWlLk6GJQsqaUBKTNV-1" source="oKwuF4_4sGeXrzRO-QN0-28" target="oKwuF4_4sGeXrzRO-QN0-26">
          <mxGeometry relative="1" as="geometry" />
        </mxCell>
        <mxCell id="oKwuF4_4sGeXrzRO-QN0-28" value="terdaftra/tidak" style="rhombus;whiteSpace=wrap;html=1;" vertex="1" parent="WIyWlLk6GJQsqaUBKTNV-1">
          <mxGeometry x="375" y="960" width="110" height="110" as="geometry" />
        </mxCell>
        <mxCell id="oKwuF4_4sGeXrzRO-QN0-31" value="proses login" style="rounded=0;whiteSpace=wrap;html=1;" vertex="1" parent="WIyWlLk6GJQsqaUBKTNV-1">
          <mxGeometry x="360" y="1120" width="120" height="60" as="geometry" />
        </mxCell>
        <mxCell id="oKwuF4_4sGeXrzRO-QN0-49" style="edgeStyle=orthogonalEdgeStyle;rounded=0;orthogonalLoop=1;jettySize=auto;html=1;exitX=1;exitY=0.5;exitDx=0;exitDy=0;entryX=0;entryY=0.5;entryDx=0;entryDy=0;" edge="1" parent="WIyWlLk6GJQsqaUBKTNV-1" source="oKwuF4_4sGeXrzRO-QN0-34" target="oKwuF4_4sGeXrzRO-QN0-46">
          <mxGeometry relative="1" as="geometry" />
        </mxCell>
        <mxCell id="oKwuF4_4sGeXrzRO-QN0-50" style="edgeStyle=orthogonalEdgeStyle;rounded=0;orthogonalLoop=1;jettySize=auto;html=1;exitX=0;exitY=0.5;exitDx=0;exitDy=0;" edge="1" parent="WIyWlLk6GJQsqaUBKTNV-1" source="oKwuF4_4sGeXrzRO-QN0-34" target="oKwuF4_4sGeXrzRO-QN0-47">
          <mxGeometry relative="1" as="geometry" />
        </mxCell>
        <mxCell id="oKwuF4_4sGeXrzRO-QN0-51" style="edgeStyle=orthogonalEdgeStyle;rounded=0;orthogonalLoop=1;jettySize=auto;html=1;exitX=0;exitY=0;exitDx=0;exitDy=0;entryX=0.5;entryY=0;entryDx=0;entryDy=0;" edge="1" parent="WIyWlLk6GJQsqaUBKTNV-1" source="oKwuF4_4sGeXrzRO-QN0-34" target="oKwuF4_4sGeXrzRO-QN0-48">
          <mxGeometry relative="1" as="geometry" />
        </mxCell>
        <mxCell id="oKwuF4_4sGeXrzRO-QN0-59" style="edgeStyle=orthogonalEdgeStyle;rounded=0;orthogonalLoop=1;jettySize=auto;html=1;exitX=0.5;exitY=1;exitDx=0;exitDy=0;entryX=0.5;entryY=0;entryDx=0;entryDy=0;" edge="1" parent="WIyWlLk6GJQsqaUBKTNV-1" source="oKwuF4_4sGeXrzRO-QN0-34" target="oKwuF4_4sGeXrzRO-QN0-52">
          <mxGeometry relative="1" as="geometry" />
        </mxCell>
        <mxCell id="oKwuF4_4sGeXrzRO-QN0-34" value="menu utama" style="rhombus;whiteSpace=wrap;html=1;" vertex="1" parent="WIyWlLk6GJQsqaUBKTNV-1">
          <mxGeometry x="365" y="1210" width="110" height="110" as="geometry" />
        </mxCell>
        <mxCell id="oKwuF4_4sGeXrzRO-QN0-36" style="edgeStyle=orthogonalEdgeStyle;rounded=0;orthogonalLoop=1;jettySize=auto;html=1;exitX=0;exitY=0.5;exitDx=0;exitDy=0;entryX=0.967;entryY=0.617;entryDx=0;entryDy=0;entryPerimeter=0;" edge="1" parent="WIyWlLk6GJQsqaUBKTNV-1" source="oKwuF4_4sGeXrzRO-QN0-28" target="oKwuF4_4sGeXrzRO-QN0-27">
          <mxGeometry relative="1" as="geometry" />
        </mxCell>
        <mxCell id="oKwuF4_4sGeXrzRO-QN0-58" style="edgeStyle=orthogonalEdgeStyle;rounded=0;orthogonalLoop=1;jettySize=auto;html=1;exitX=0.5;exitY=1;exitDx=0;exitDy=0;entryX=1;entryY=0.5;entryDx=0;entryDy=0;" edge="1" parent="WIyWlLk6GJQsqaUBKTNV-1" source="oKwuF4_4sGeXrzRO-QN0-46" target="oKwuF4_4sGeXrzRO-QN0-52">
          <mxGeometry relative="1" as="geometry" />
        </mxCell>
        <mxCell id="oKwuF4_4sGeXrzRO-QN0-46" value="memimjam" style="rounded=0;whiteSpace=wrap;html=1;" vertex="1" parent="WIyWlLk6GJQsqaUBKTNV-1">
          <mxGeometry x="500" y="1235" width="120" height="60" as="geometry" />
        </mxCell>
        <mxCell id="oKwuF4_4sGeXrzRO-QN0-57" style="edgeStyle=orthogonalEdgeStyle;rounded=0;orthogonalLoop=1;jettySize=auto;html=1;exitX=0.5;exitY=1;exitDx=0;exitDy=0;entryX=0;entryY=0.5;entryDx=0;entryDy=0;" edge="1" parent="WIyWlLk6GJQsqaUBKTNV-1" source="oKwuF4_4sGeXrzRO-QN0-47" target="oKwuF4_4sGeXrzRO-QN0-52">
          <mxGeometry relative="1" as="geometry" />
        </mxCell>
        <mxCell id="oKwuF4_4sGeXrzRO-QN0-47" value="pengembalian" style="rounded=0;whiteSpace=wrap;html=1;" vertex="1" parent="WIyWlLk6GJQsqaUBKTNV-1">
          <mxGeometry x="220" y="1235" width="120" height="60" as="geometry" />
        </mxCell>
        <mxCell id="oKwuF4_4sGeXrzRO-QN0-48" value="membaca" style="rounded=0;whiteSpace=wrap;html=1;" vertex="1" parent="WIyWlLk6GJQsqaUBKTNV-1">
          <mxGeometry x="60" y="1235" width="120" height="60" as="geometry" />
        </mxCell>
        <mxCell id="oKwuF4_4sGeXrzRO-QN0-61" style="edgeStyle=orthogonalEdgeStyle;rounded=0;orthogonalLoop=1;jettySize=auto;html=1;exitX=0.5;exitY=1;exitDx=0;exitDy=0;entryX=0.5;entryY=0;entryDx=0;entryDy=0;" edge="1" parent="WIyWlLk6GJQsqaUBKTNV-1" source="oKwuF4_4sGeXrzRO-QN0-52" target="oKwuF4_4sGeXrzRO-QN0-54">
          <mxGeometry relative="1" as="geometry" />
        </mxCell>
        <mxCell id="oKwuF4_4sGeXrzRO-QN0-52" value="mencari buku" style="rounded=0;whiteSpace=wrap;html=1;" vertex="1" parent="WIyWlLk6GJQsqaUBKTNV-1">
          <mxGeometry x="355" y="1350" width="120" height="60" as="geometry" />
        </mxCell>
        <mxCell id="oKwuF4_4sGeXrzRO-QN0-64" style="edgeStyle=orthogonalEdgeStyle;rounded=0;orthogonalLoop=1;jettySize=auto;html=1;exitX=0.5;exitY=1;exitDx=0;exitDy=0;entryX=0.5;entryY=0;entryDx=0;entryDy=0;" edge="1" parent="WIyWlLk6GJQsqaUBKTNV-1" source="oKwuF4_4sGeXrzRO-QN0-54" target="oKwuF4_4sGeXrzRO-QN0-62">
          <mxGeometry relative="1" as="geometry" />
        </mxCell>
        <mxCell id="oKwuF4_4sGeXrzRO-QN0-54" value="hasil pencarian" style="rounded=0;whiteSpace=wrap;html=1;" vertex="1" parent="WIyWlLk6GJQsqaUBKTNV-1">
          <mxGeometry x="360" y="1440" width="120" height="60" as="geometry" />
        </mxCell>
        <mxCell id="oKwuF4_4sGeXrzRO-QN0-55" value="selesai" style="ellipse;whiteSpace=wrap;html=1;" vertex="1" parent="WIyWlLk6GJQsqaUBKTNV-1">
          <mxGeometry x="360" y="1660" width="120" height="80" as="geometry" />
        </mxCell>
        <mxCell id="oKwuF4_4sGeXrzRO-QN0-56" value="tidak" style="rounded=0;whiteSpace=wrap;html=1;" vertex="1" parent="WIyWlLk6GJQsqaUBKTNV-1">
          <mxGeometry x="510" y="1560" width="120" height="60" as="geometry" />
        </mxCell>
        <mxCell id="oKwuF4_4sGeXrzRO-QN0-60" style="edgeStyle=orthogonalEdgeStyle;rounded=0;orthogonalLoop=1;jettySize=auto;html=1;exitX=0.5;exitY=1;exitDx=0;exitDy=0;entryX=0.482;entryY=0.064;entryDx=0;entryDy=0;entryPerimeter=0;" edge="1" parent="WIyWlLk6GJQsqaUBKTNV-1" source="oKwuF4_4sGeXrzRO-QN0-31" target="oKwuF4_4sGeXrzRO-QN0-34">
          <mxGeometry relative="1" as="geometry" />
        </mxCell>
        <mxCell id="oKwuF4_4sGeXrzRO-QN0-65" style="edgeStyle=orthogonalEdgeStyle;rounded=0;orthogonalLoop=1;jettySize=auto;html=1;exitX=0;exitY=0.5;exitDx=0;exitDy=0;entryX=1;entryY=0.5;entryDx=0;entryDy=0;" edge="1" parent="WIyWlLk6GJQsqaUBKTNV-1" source="oKwuF4_4sGeXrzRO-QN0-62" target="oKwuF4_4sGeXrzRO-QN0-63">
          <mxGeometry relative="1" as="geometry" />
        </mxCell>
        <mxCell id="oKwuF4_4sGeXrzRO-QN0-66" style="edgeStyle=orthogonalEdgeStyle;rounded=0;orthogonalLoop=1;jettySize=auto;html=1;exitX=1;exitY=0.5;exitDx=0;exitDy=0;entryX=0;entryY=0.5;entryDx=0;entryDy=0;" edge="1" parent="WIyWlLk6GJQsqaUBKTNV-1" source="oKwuF4_4sGeXrzRO-QN0-62" target="oKwuF4_4sGeXrzRO-QN0-56">
          <mxGeometry relative="1" as="geometry" />
        </mxCell>
        <mxCell id="oKwuF4_4sGeXrzRO-QN0-67" style="edgeStyle=orthogonalEdgeStyle;rounded=0;orthogonalLoop=1;jettySize=auto;html=1;exitX=0.5;exitY=1;exitDx=0;exitDy=0;entryX=0.5;entryY=0;entryDx=0;entryDy=0;" edge="1" parent="WIyWlLk6GJQsqaUBKTNV-1" source="oKwuF4_4sGeXrzRO-QN0-62" target="oKwuF4_4sGeXrzRO-QN0-55">
          <mxGeometry relative="1" as="geometry" />
        </mxCell>
        <mxCell id="oKwuF4_4sGeXrzRO-QN0-62" value="pilih buku" style="rhombus;whiteSpace=wrap;html=1;" vertex="1" parent="WIyWlLk6GJQsqaUBKTNV-1">
          <mxGeometry x="365" y="1530" width="110" height="110" as="geometry" />
        </mxCell>
        <mxCell id="oKwuF4_4sGeXrzRO-QN0-63" value="yaa" style="rounded=0;whiteSpace=wrap;html=1;" vertex="1" parent="WIyWlLk6GJQsqaUBKTNV-1">
          <mxGeometry x="220" y="1555" width="120" height="60" as="geometry" />
        </mxCell>
        <mxCell id="oKwuF4_4sGeXrzRO-QN0-68" value="ADMIN" style="text;html=1;align=center;verticalAlign=middle;resizable=0;points=[];autosize=1;strokeColor=none;fillColor=none;" vertex="1" parent="WIyWlLk6GJQsqaUBKTNV-1">
          <mxGeometry x="420" y="10" width="60" height="30" as="geometry" />
        </mxCell>
        <mxCell id="oKwuF4_4sGeXrzRO-QN0-69" value="MEMBER" style="text;html=1;align=center;verticalAlign=middle;resizable=0;points=[];autosize=1;strokeColor=none;fillColor=none;" vertex="1" parent="WIyWlLk6GJQsqaUBKTNV-1">
          <mxGeometry x="390" y="740" width="80" height="30" as="geometry" />
        </mxCell>
      </root>
    </mxGraphModel>
  </diagram>
</mxfile>
